<svg width="1920" height="1080" viewBox="0 0 1920 1080" fill="none" xmlns="http://www.w3.org/2000/svg">
  <defs>
    <radialGradient id="centerGlow" cx="50%" cy="50%" r="50%">
      <stop offset="0%" style="stop-color:#ffffff;stop-opacity:1" />
      <stop offset="20%" style="stop-color:#60a5fa;stop-opacity:0.8" />
      <stop offset="50%" style="stop-color:#3b82f6;stop-opacity:0.4" />
      <stop offset="100%" style="stop-color:#1e40af;stop-opacity:0.1" />
    </radialGradient>
    
    <linearGradient id="bgGradient" x1="0%" y1="0%" x2="100%" y2="100%">
      <stop offset="0%" style="stop-color:#0f172a;stop-opacity:1" />
      <stop offset="50%" style="stop-color:#1e293b;stop-opacity:1" />
      <stop offset="100%" style="stop-color:#0f172a;stop-opacity:1" />
    </linearGradient>
    
    <filter id="glow">
      <feGaussianBlur stdDeviation="3" result="coloredBlur"/>
      <feMerge> 
        <feMergeNode in="coloredBlur"/>
        <feMergeNode in="SourceGraphic"/>
      </feMerge>
    </filter>
  </defs>
  
  <!-- Background -->
  <rect width="1920" height="1080" fill="url(#bgGradient)"/>
  
  <!-- Central glowing orb -->
  <circle cx="960" cy="540" r="120" fill="url(#centerGlow)" filter="url(#glow)"/>
  
  <!-- Concentric circles -->
  <circle cx="960" cy="540" r="80" fill="none" stroke="#3b82f6" stroke-width="2" opacity="0.6"/>
  <circle cx="960" cy="540" r="100" fill="none" stroke="#60a5fa" stroke-width="1" opacity="0.4"/>
  <circle cx="960" cy="540" r="140" fill="none" stroke="#93c5fd" stroke-width="1" opacity="0.3"/>
  
  <!-- Radiating lines -->
  <g stroke="#60a5fa" stroke-width="2" opacity="0.7" filter="url(#glow)">
    <line x1="960" y1="420" x2="960" y2="200" />
    <line x1="1080" y1="540" x2="1300" y2="540" />
    <line x1="960" y1="660" x2="960" y2="880" />
    <line x1="840" y1="540" x2="620" y2="540" />
    
    <line x1="1045" y1="455" x2="1200" y2="300" />
    <line x1="1045" y1="625" x2="1200" y2="780" />
    <line x1="875" y1="625" x2="720" y2="780" />
    <line x1="875" y1="455" x2="720" y2="300" />
  </g>
  
  <!-- Additional radiating lines -->
  <g stroke="#3b82f6" stroke-width="1" opacity="0.5">
    <line x1="960" y1="540" x2="1400" y2="100" />
    <line x1="960" y1="540" x2="1400" y2="980" />
    <line x1="960" y1="540" x2="520" y2="100" />
    <line x1="960" y1="540" x2="520" y2="980" />
    
    <line x1="960" y1="540" x2="1600" y2="200" />
    <line x1="960" y1="540" x2="1600" y2="880" />
    <line x1="960" y1="540" x2="320" y2="200" />
    <line x1="960" y1="540" x2="320" y2="880" />
  </g>
  
  <!-- Curved energy streams -->
  <path d="M 200 540 Q 580 340 960 540" stroke="#60a5fa" stroke-width="3" fill="none" opacity="0.6" filter="url(#glow)"/>
  <path d="M 960 540 Q 1340 340 1720 540" stroke="#60a5fa" stroke-width="3" fill="none" opacity="0.6" filter="url(#glow)"/>
  <path d="M 960 100 Q 760 320 960 540" stroke="#3b82f6" stroke-width="2" fill="none" opacity="0.5"/>
  <path d="M 960 540 Q 1160 760 960 980" stroke="#3b82f6" stroke-width="2" fill="none" opacity="0.5"/>
  
  <!-- Floating particles -->
  <g fill="#60a5fa" opacity="0.8">
    <circle cx="300" cy="200" r="2" filter="url(#glow)"/>
    <circle cx="1620" cy="300" r="2" filter="url(#glow)"/>
    <circle cx="200" cy="800" r="2" filter="url(#glow)"/>
    <circle cx="1720" cy="780" r="2" filter="url(#glow)"/>
    <circle cx="500" cy="150" r="1.5" filter="url(#glow)"/>
    <circle cx="1420" cy="900" r="1.5" filter="url(#glow)"/>
    <circle cx="150" cy="400" r="1.5" filter="url(#glow)"/>
    <circle cx="1770" cy="600" r="1.5" filter="url(#glow)"/>
  </g>
  
  <!-- Additional glow effects -->
  <circle cx="960" cy="540" r="200" fill="none" stroke="url(#centerGlow)" stroke-width="1" opacity="0.2"/>
  <circle cx="960" cy="540" r="250" fill="none" stroke="#1e40af" stroke-width="1" opacity="0.1"/>
</svg>